<?xml version="1.0" encoding="UTF-8"?>
<svg version="1.1" xmlns="http://www.w3.org/2000/svg" width="1280" height="720">
<path d="M0 0 C422.4 0 844.8 0 1280 0 C1280 237.6 1280 475.2 1280 720 C857.6 720 435.2 720 0 720 C0 482.4 0 244.8 0 0 Z " fill="#071952" transform="translate(0,0)"/>
<path d="M0 0 C0.69959839 -0.0065712 1.39919678 -0.0131424 2.11999512 -0.01991272 C4.43522251 -0.03962096 6.75038501 -0.05130455 9.06567383 -0.0612793 C9.85831446 -0.06535482 10.65095509 -0.06943035 11.46761513 -0.07362938 C15.66541914 -0.0944825 19.86319057 -0.10878583 24.06103516 -0.11816406 C28.38410215 -0.12920936 32.70665171 -0.16358924 37.02953625 -0.20333576 C40.36427221 -0.22956171 43.69888619 -0.23786131 47.0337162 -0.24144554 C48.62643224 -0.24629839 50.21914331 -0.2578751 51.81175804 -0.27648354 C68.76242616 -0.46218162 68.76242616 -0.46218162 74.08520508 4.17700195 C78.18312728 9.90170099 78.65982988 15.45864509 78.59313965 22.3104248 C78.59937961 23.3039189 78.60561957 24.297413 78.61204863 25.32101297 C78.6279491 28.63588398 78.61538548 31.95001667 78.6027832 35.26489258 C78.6082056 37.64715503 78.61532892 40.02941412 78.62402344 42.41166687 C78.64035454 48.20193107 78.63798487 53.99196235 78.62637287 59.7822336 C78.6173246 64.48975282 78.61612056 69.19721395 78.62046814 73.90473938 C78.62108107 74.57575846 78.621694 75.24677754 78.62232551 75.93813053 C78.62360446 77.30146342 78.62490132 78.6647963 78.62621588 80.02812916 C78.63761114 92.80012307 78.62452457 105.57200198 78.60301441 118.34397703 C78.58514434 129.29342182 78.58824875 140.24269695 78.60668945 151.19213867 C78.62811484 163.91967036 78.6365126 176.64710136 78.6242404 189.37464857 C78.62296626 190.73285387 78.62170877 192.09105919 78.62046814 193.44926453 C78.61985104 194.11745772 78.61923394 194.78565092 78.61859813 195.47409239 C78.61515023 200.17377771 78.62096147 204.87339895 78.63038635 209.57307434 C78.64194838 215.90314671 78.63391208 222.23289896 78.61080933 228.56293678 C78.60552421 230.88488547 78.60703259 233.20686113 78.61585999 235.52879906 C78.62680633 238.70075502 78.61306174 241.87168813 78.59313965 245.0435791 C78.60206254 245.96031985 78.61098542 246.87706059 78.6201787 247.82158136 C78.54022316 254.3941765 77.22371122 260.00901818 72.47196245 264.80539656 C66.19561443 269.99879313 57.29090139 268.89797934 49.61645508 268.84106445 C48.01037225 268.84443819 46.40429192 268.84929544 44.79821777 268.8555603 C41.44262226 268.8629055 38.08769514 268.85230323 34.73217773 268.82885742 C30.44818156 268.80037002 26.16575186 268.81678683 21.88181305 268.84671974 C18.56842416 268.8648572 15.25540176 268.85900547 11.94200134 268.84608078 C10.36327424 268.84276451 8.78451298 268.84677076 7.20582581 268.85847855 C-7.53481103 268.94382807 -7.53481103 268.94382807 -13.45080566 264.83334351 C-18.25990328 259.39238267 -18.34646334 253.99506633 -18.30247498 247.11877441 C-18.30786051 246.10924383 -18.31324605 245.09971324 -18.31879479 244.05959082 C-18.33309605 240.6786818 -18.32596515 237.2981631 -18.31884766 233.91723633 C-18.32455003 231.49261663 -18.33151377 229.06799961 -18.33964539 226.64338684 C-18.35574015 220.74260625 -18.35767475 214.841924 -18.35243248 208.94113314 C-18.34838887 204.14488242 -18.34983659 199.34866316 -18.35518074 194.55241394 C-18.35592916 193.86944499 -18.35667758 193.18647604 -18.35744869 192.48281106 C-18.35898018 191.09531565 -18.36051853 189.70782024 -18.36206365 188.32032484 C-18.37578624 175.31379311 -18.37035244 162.30732156 -18.35887844 149.3007912 C-18.34894359 137.40352429 -18.36189145 125.50641284 -18.38581263 113.6091699 C-18.41019783 101.38898068 -18.41981311 89.1688639 -18.41315991 76.94865084 C-18.40966673 70.08951578 -18.41190628 63.23050032 -18.42941093 56.37138367 C-18.44566303 49.92319407 -18.44096033 43.47522853 -18.42210579 37.0270443 C-18.4184111 34.6591008 -18.42155383 32.29113542 -18.43199158 29.92321205 C-18.44514227 26.69353892 -18.43370568 23.46485947 -18.41600037 20.23522949 C-18.42560537 19.29573503 -18.43521038 18.35624057 -18.44510645 17.38827658 C-18.38211633 11.81313731 -17.64613169 8.59687253 -13.91479492 4.17700195 C-9.49305627 0.29123163 -5.76482746 0.04482473 0 0 Z " fill="#FDFEFE" transform="translate(438.914794921875,122.822998046875)"/>
<path d="M0 0 C0.69145111 -0.0049649 1.38290222 -0.00992981 2.0953064 -0.01504517 C4.38288368 -0.02964922 6.67039156 -0.03646674 8.95800781 -0.04199219 C10.55120851 -0.04774622 12.14440919 -0.05350392 13.73760986 -0.05926514 C17.07995933 -0.06977091 20.42228478 -0.07561597 23.76464844 -0.07910156 C28.03615468 -0.08457759 32.30734076 -0.10858812 36.5787468 -0.13707352 C39.87140817 -0.15575064 43.16399332 -0.16090824 46.45670319 -0.16243744 C48.03069046 -0.16545436 49.60467671 -0.17345031 51.17861176 -0.18662262 C53.38754691 -0.20378576 55.59571169 -0.20177811 57.8046875 -0.1953125 C59.68640656 -0.20078094 59.68640656 -0.20078094 61.60614014 -0.20635986 C66.90885853 0.34180165 70.82708011 1.72176016 74.53613281 5.72363281 C76.64641439 8.88905518 77.28630125 10.50031126 77.29256058 14.24795914 C77.29640172 15.10863975 77.30024287 15.96932036 77.30420041 16.8560822 C77.30333393 17.80722803 77.30246745 18.75837386 77.30157471 19.73834229 C77.30454583 20.74445517 77.30751695 21.75056806 77.31057811 22.78716922 C77.31929463 26.18038671 77.32077585 29.57356905 77.32226562 32.96679688 C77.32689173 35.39082414 77.33191611 37.81485067 77.33731079 40.23887634 C77.35045729 46.84018908 77.35692066 53.44149448 77.36132145 60.04281712 C77.36408249 64.16395001 77.36831963 68.28508055 77.37282562 72.40621185 C77.38502041 83.81378151 77.39531882 95.22134929 77.39870071 106.62892532 C77.39903006 107.72455587 77.39903006 107.72455587 77.39936607 108.84232037 C77.39969348 109.94059516 77.39969348 109.94059516 77.40002751 111.06105733 C77.40047098 112.5447739 77.40091755 114.02849046 77.40136719 115.51220703 C77.40158862 116.24818401 77.40181005 116.984161 77.40203819 117.74244031 C77.40598551 129.66579607 77.42343658 141.58909069 77.44672671 153.51242283 C77.47043895 165.75055186 77.48290253 177.98865021 77.48406863 190.22680259 C77.48498555 197.09939893 77.49074179 203.97191564 77.50888824 210.84449005 C77.52589684 217.30899682 77.52754275 223.77339274 77.51874924 230.23791695 C77.51797682 232.61231198 77.52234838 234.98671502 77.53220749 237.36108971 C77.54486719 240.599571 77.53908238 243.83751162 77.52862549 247.07598877 C77.5407101 248.48932318 77.5407101 248.48932318 77.55303884 249.9312098 C77.51406139 255.0836394 77.09400746 258.73114089 74.16113281 263.16113281 C68.78933324 267.30189499 65.02322816 268.28513073 58.33813477 268.35400391 C57.64828995 268.3621814 56.95844513 268.37035889 56.24769592 268.37878418 C53.96494401 268.40359188 51.68225423 268.42014481 49.39941406 268.43457031 C48.617806 268.43989399 47.83619793 268.44521767 47.03090477 268.45070267 C42.89146278 268.47741788 38.75205073 268.49679543 34.61254883 268.51123047 C31.19528332 268.52455282 27.77861735 268.55237526 24.36157227 268.59326172 C20.22777499 268.64271916 16.09452016 268.66736762 11.96043968 268.67445755 C10.39002751 268.68114853 8.81962643 268.69631435 7.24938393 268.72034836 C-8.22141015 268.9435784 -8.22141015 268.9435784 -13.22422022 264.79407066 C-17.96695516 259.99760956 -19.2937365 254.39646055 -19.36917871 247.82722324 C-19.35957371 246.91369132 -19.3499687 246.00015941 -19.34007263 245.0589447 C-19.34560703 244.06882859 -19.35114143 243.07871248 -19.35684353 242.05859286 C-19.37040981 238.75519322 -19.35550224 235.45255437 -19.34057617 232.14916992 C-19.34436077 229.77513814 -19.34986197 227.40110857 -19.35694885 225.02708435 C-19.37090143 218.58918281 -19.35973511 212.15154858 -19.34323764 205.71366191 C-19.32909718 199.6577762 -19.33499938 193.60189405 -19.33836735 187.54599816 C-19.34424035 175.54681585 -19.33009584 163.54773861 -19.30541992 151.54858398 C-19.28149542 139.91345279 -19.27441845 128.27846193 -19.28491211 116.64331055 C-19.29632858 103.96230674 -19.2982428 91.28136778 -19.28381401 78.60036474 C-19.28228823 77.2475135 -19.28076787 75.89466225 -19.27925301 74.54181099 C-19.27849519 73.87624119 -19.27773738 73.21067139 -19.2769566 72.52493281 C-19.27221982 67.84132353 -19.27406086 63.15774327 -19.27831841 58.47413445 C-19.28309073 52.16790886 -19.27297557 45.8618775 -19.25136375 39.55568886 C-19.2457995 37.24138418 -19.24532726 34.92706082 -19.25031662 32.61275482 C-19.256273 29.45373348 -19.24375693 26.29530521 -19.22654724 23.13633728 C-19.23255729 22.22057464 -19.23856733 21.304812 -19.2447595 20.36129898 C-19.18460509 14.28890071 -18.45015277 9.19403221 -14.33886719 4.41894531 C-9.34289284 0.64594385 -6.18150027 0.03373084 0 0 Z " fill="#FDFDFE" transform="translate(781.8388671875,124.8388671875)"/>
<path d="M0 0 C0.75157883 -0.0049649 1.50315765 -0.00992981 2.2775116 -0.01504517 C4.76468827 -0.02965344 7.25180114 -0.03646684 9.73901367 -0.04199219 C11.46913149 -0.0477451 13.19924928 -0.05350281 14.92936707 -0.05926514 C18.55838315 -0.06977157 22.1873771 -0.07561646 25.81640625 -0.07910156 C30.46017248 -0.08458309 35.10364503 -0.10860524 39.74731922 -0.13707352 C43.32216742 -0.15572407 46.89694526 -0.1609068 50.471838 -0.16243744 C52.18341361 -0.16545945 53.89498812 -0.17347272 55.60651588 -0.18662262 C58.00482962 -0.20373263 60.40243075 -0.20179095 62.80078125 -0.1953125 C63.50385406 -0.20452728 64.20692688 -0.21374207 64.93130493 -0.22323608 C69.53891847 -0.18436928 72.67302974 0.75486852 76.59448242 3.16113281 C83.45563442 12.57774543 76.87298793 33.46086237 75.28198242 43.97363281 C74.65687817 48.16705403 74.03701227 52.36123631 73.41870117 56.55566406 C73.2645726 57.59619934 73.11044403 58.63673462 72.9516449 59.70880127 C71.73200526 68.02060419 70.66879835 76.34675064 69.64590454 84.68473816 C68.59475489 93.23695106 67.4388738 101.7655743 66.15698242 110.28613281 C66.01377563 111.3102124 66.01377563 111.3102124 65.86767578 112.35498047 C65.58417624 114.37875304 65.28104582 116.39872173 64.97338867 118.41894531 C64.80395752 119.57539551 64.63452637 120.7318457 64.45996094 121.92333984 C63.13632295 126.87512743 61.06836401 130.23194659 56.71948242 132.97363281 C50.97997859 135.15464427 45.37367597 135.30362611 39.29418945 135.2746582 C38.48376694 135.27480423 37.67334442 135.27495026 36.83836365 135.27510071 C34.17631292 135.27440752 31.51433334 135.26664305 28.85229492 135.25878906 C26.99999022 135.25692277 25.14768502 135.25549986 23.29537964 135.25450134 C18.43252182 135.25069279 13.56969411 135.24087673 8.70684814 135.22979736 C3.73970955 135.21954747 -1.22743394 135.21499607 -6.19458008 135.20996094 C-15.93157244 135.19925293 -25.6685425 135.18219652 -35.40551758 135.16113281 C-34.81084696 132.45040075 -34.20516207 129.74292444 -33.59301758 127.03613281 C-33.42737305 126.27558594 -33.26172852 125.51503906 -33.09106445 124.73144531 C-31.73491503 118.79509313 -30.42721366 113.75268079 -25.46801758 109.84863281 C-21.14545319 107.46681162 -17.80853173 107.0345757 -12.90258789 106.95581055 C-11.80174866 106.93586533 -10.70090942 106.9159201 -9.56671143 106.89537048 C-8.38429871 106.87865799 -7.20188599 106.8619455 -5.98364258 106.84472656 C-4.7685199 106.82394547 -3.55339722 106.80316437 -2.30145264 106.78175354 C1.58046815 106.71636453 5.46245662 106.6574223 9.34448242 106.59863281 C11.97599984 106.55543749 14.60751041 106.51182287 17.23901367 106.46777344 C23.69076502 106.36069398 30.14258372 106.25890767 36.59448242 106.16113281 C38.20512871 102.51033455 39.04342333 99.11038962 39.59448242 95.16113281 C38.85612152 95.17001526 38.11776062 95.17889771 37.35702515 95.18804932 C30.38353153 95.2683454 23.41010742 95.32917339 16.43626976 95.3683815 C12.85127341 95.38921704 9.26666048 95.41745932 5.68188477 95.46289062 C2.21944052 95.50649474 -1.24263599 95.53030024 -4.70533371 95.54064178 C-6.6629424 95.55158102 -8.62040406 95.58278409 -10.57778931 95.61431885 C-21.72683042 95.61712399 -21.72683042 95.61712399 -26.40551758 91.16113281 C-29.84535641 84.28145514 -26.78942881 73.52961827 -25.71801758 66.28613281 C-25.35027842 63.73152466 -24.98311963 61.17683292 -24.61645508 58.62207031 C-24.47085396 57.61762878 -24.47085396 57.61762878 -24.3223114 56.59289551 C-23.55190847 51.25877717 -22.83603109 45.91844277 -22.13208008 40.57519531 C-21.80861771 38.14815678 -21.48425785 35.72124012 -21.15951538 33.29437256 C-20.9504901 31.72040474 -20.74423842 30.1460658 -20.54092407 28.5713501 C-17.82314605 7.57876129 -17.82314605 7.57876129 -12.90551758 2.66113281 C-8.59635179 0.07563334 -4.87653854 0.00768711 0 0 Z " fill="#FBFCFD" transform="translate(558.405517578125,211.8388671875)"/>
<path d="M0 0 C0 57.09 0 114.18 0 173 C-45 173 -45 173 -53 169 C-57.60832769 164.39167231 -58.24774789 160.03399636 -58.26742554 153.66896057 C-58.27595551 152.41711975 -58.28448547 151.16527893 -58.29327393 149.87550354 C-58.29257501 148.50106799 -58.29165201 147.12663254 -58.29052734 145.75219727 C-58.29651622 144.29470476 -58.30332259 142.83721542 -58.31088257 141.37973022 C-58.32851078 137.43137727 -58.33323653 133.48311107 -58.33451414 129.53472257 C-58.33593781 127.06586832 -58.34021144 124.59703598 -58.34550858 122.12818718 C-58.36399653 113.50951619 -58.37218051 104.89090696 -58.37060547 96.2722168 C-58.36940358 88.24688863 -58.39051833 80.22182919 -58.4220928 72.19656903 C-58.44826477 65.29786911 -58.45897242 58.39925694 -58.45769465 51.50050777 C-58.4571854 47.3838794 -58.46284851 43.2674901 -58.48405075 39.15091133 C-58.5034495 35.27906038 -58.50354678 31.40767622 -58.48901749 27.53580856 C-58.48693047 26.11807382 -58.49162399 24.70030972 -58.5037384 23.2826252 C-58.61521976 9.32870394 -58.61521976 9.32870394 -54 4 C-46 0 -46 0 0 0 Z " fill="#FBFCFD" transform="translate(402,180)"/>
<path d="M0 0 C46 0 46 0 54 4 C57.68631459 8.75653496 58.12346738 13.16209389 58.15390015 19.0458374 C58.16250061 20.28506958 58.17110107 21.52430176 58.17996216 22.80108643 C58.18439699 24.17175251 58.18869539 25.54241904 58.19287109 26.91308594 C58.20077611 28.35880732 58.20904531 29.80452676 58.21765137 31.25024414 C58.24382345 35.99493538 58.25917336 40.73963524 58.2734375 45.484375 C58.278799 47.11989599 58.28417652 48.75541692 58.28956985 50.39093781 C58.31119077 57.19543062 58.32992664 63.9999211 58.34119225 70.80443954 C58.35742775 80.54549087 58.3906046 90.28614314 58.44759309 100.02704406 C58.48632847 106.88239472 58.50582913 113.73763881 58.51111281 120.59309602 C58.51476112 124.68472031 58.52672665 128.7759185 58.55921555 132.86742401 C58.58936029 136.71877869 58.59558568 140.56945085 58.58383179 144.42089844 C58.58361159 145.83016763 58.59187224 147.2394691 58.60948563 148.64862823 C58.70708771 156.91051328 58.60911666 162.6630365 53 169 C45 173 45 173 0 173 C0 115.91 0 58.82 0 0 Z " fill="#FCFCFD" transform="translate(878,163)"/>
<path d="M0 0 C2.6881249 -0.08164159 5.373723 -0.14079668 8.0625 -0.1875 C8.81466797 -0.21263672 9.56683594 -0.23777344 10.34179688 -0.26367188 C15.66313494 -0.33278016 19.30528291 0.43435206 24 3 C28.75219438 10.12829157 25.42660643 20.69191155 24 28.625 C23.71382812 30.27435547 23.71382812 30.27435547 23.421875 31.95703125 C22.95537214 34.63942269 22.48129606 37.32023057 22 40 C22.76563766 39.99111755 23.53127533 39.98223511 24.32011414 39.9730835 C31.54414769 39.89285403 38.76796449 39.83199366 45.99232769 39.79275131 C49.70626049 39.77189788 53.41982441 39.74362245 57.13354492 39.69824219 C60.71917648 39.65470254 64.3044538 39.630846 67.89032936 39.62049103 C69.25667712 39.61311406 70.62300602 39.59870819 71.9892025 39.57707977 C73.90626405 39.54794428 75.82368391 39.54636524 77.7409668 39.54589844 C78.83128708 39.53701599 79.92160736 39.52813354 81.04496765 39.51898193 C84.71794715 40.11686693 86.38424807 41.39881802 89 44 C92.10144513 57.08714939 87.29386391 73.68002452 85.46636963 86.73895264 C85.09411719 89.42342311 84.73482795 92.10956295 84.37560558 94.79580307 C83.93900016 98.04720628 83.49057888 101.29697137 83.04296875 104.546875 C82.80370918 106.32695953 82.80370918 106.32695953 82.55961609 108.14300537 C79.75546406 127.98951206 79.75546406 127.98951206 74 133 C69.44423005 135.61033305 64.78199689 135.22954374 59.6875 135.125 C58.85154297 135.11597656 58.01558594 135.10695313 57.15429688 135.09765625 C55.10274031 135.07420989 53.05133223 135.03834266 51 135 C51.13277344 133.82824219 51.26554688 132.65648437 51.40234375 131.44921875 C51.5809915 129.86200867 51.7593582 128.27476694 51.9375 126.6875 C52.0295874 125.86822021 52.1216748 125.04894043 52.21655273 124.20483398 C52.81422653 118.83106369 53.34047059 113.45794473 53.75390625 108.06640625 C54 106 54 106 55 103 C55.25941702 101.21262916 55.48254268 99.4198733 55.68359375 97.625 C55.80669922 96.55636719 55.92980469 95.48773438 56.05664062 94.38671875 C56.30702771 92.16019975 56.55703875 89.93363842 56.80664062 87.70703125 C56.93103516 86.62808594 57.05542969 85.54914063 57.18359375 84.4375 C57.29243896 83.46683594 57.40128418 82.49617188 57.51342773 81.49609375 C58.18923868 76.64029205 59.12299545 71.82352502 60 67 C46.14 67 32.28 67 18 67 C17.608125 70.444375 17.21625 73.88875 16.8125 77.4375 C15.62047574 87.4517313 14.31813967 97.45108255 12.87631226 107.43240356 C12.66843028 108.88486841 12.46558314 110.33806346 12.26797485 111.79196167 C10.19268302 126.98028688 10.19268302 126.98028688 6 132 C0.57866051 135.30373346 -4.29808702 135.38043884 -10.4375 135.1875 C-11.26443359 135.17396484 -12.09136719 135.16042969 -12.94335938 135.14648438 C-14.9625264 135.11146992 -16.98135318 135.05767562 -19 135 C-18.84144531 133.86433594 -18.68289063 132.72867188 -18.51953125 131.55859375 C-16.88280665 119.73566547 -15.33695751 107.9022928 -13.82687378 96.06265259 C-10.67784435 71.37462638 -10.67784435 71.37462638 -9.25 60.75 C-9.13462891 59.87666016 -9.01925781 59.00332031 -8.90039062 58.10351562 C-8.4708781 54.94594776 -8.01029558 52.03088674 -7 49 C-6.69834315 46.71218664 -6.43447841 44.41936014 -6.1875 42.125 C-5.23286536 33.6074627 -4.10008487 25.11642358 -2.9375 16.625 C-2.76307373 15.33480957 -2.58864746 14.04461914 -2.40893555 12.71533203 C-2.24176025 11.50216309 -2.07458496 10.28899414 -1.90234375 9.0390625 C-1.75273193 7.94803223 -1.60312012 6.85700195 -1.44897461 5.73291016 C-1 3 -1 3 0 0 Z " fill="#FBFCFD" transform="translate(659,172)"/>
<path d="M0 0 C1.22492157 -0.00953201 2.44984314 -0.01906403 3.71188354 -0.02888489 C5.05027291 -0.02862343 6.3886623 -0.02768622 7.72705078 -0.02612305 C9.10084157 -0.03001083 10.47463116 -0.03434567 11.84841919 -0.03910828 C14.72841283 -0.04657001 17.60828389 -0.04628006 20.48828125 -0.04101562 C24.17263461 -0.03522741 27.85648421 -0.0521359 31.54075432 -0.0753603 C34.37870196 -0.09012 37.21652899 -0.09096622 40.05450821 -0.08785057 C41.41243613 -0.08836288 42.77037096 -0.09358362 44.12826157 -0.10366249 C46.03078095 -0.11604851 47.93340215 -0.1072812 49.8359375 -0.09765625 C50.91720917 -0.09828568 51.99848083 -0.0989151 53.11251831 -0.0995636 C56.74872929 0.36408932 59.43677267 1.66406759 62.04736328 4.2746582 C63.31955371 16.6730751 60.54249426 29.37272449 58.73486328 41.5871582 C58.26605533 44.80458696 57.79992611 48.02238683 57.33547974 51.240448 C57.02641138 53.37908066 56.71495163 55.51736911 56.40109253 57.65530396 C55.61804391 63.04414652 54.89723544 68.43107838 54.28808594 73.8425293 C54.16585159 74.90900192 54.04361725 75.97547455 53.91767883 77.07426453 C53.69258768 79.07525427 53.47839197 81.077517 53.27799988 83.08113098 C52.53937823 89.61508617 51.51291413 96.58798091 48.04736328 102.2746582 C43.7071616 105.14308356 40.26272245 105.64388883 35.12402344 105.61523438 C34.127845 105.61589149 34.127845 105.61589149 33.11154175 105.61656189 C30.93619448 105.61448696 28.76163688 105.59121906 26.58642578 105.56762695 C25.07042868 105.56202635 23.55442612 105.55775844 22.03842163 105.55476379 C18.0631796 105.54335149 14.08827041 105.51391597 10.11315918 105.48065186 C6.05090842 105.44987261 1.98860348 105.43624173 -2.07373047 105.42114258 C-10.03351802 105.38904233 -17.99303587 105.33789033 -25.95263672 105.2746582 C-25.81693642 103.86401953 -25.67509144 102.45397134 -25.53076172 101.04418945 C-25.45245117 100.25890869 -25.37414062 99.47362793 -25.29345703 98.66455078 C-24.60211393 93.81673016 -23.38278369 89.82911809 -20.04272461 86.19873047 C-15.55853461 83.40660743 -11.58878172 83.67178354 -6.40185547 83.6652832 C-5.38791214 83.64874695 -4.37396881 83.63221069 -3.32929993 83.61517334 C-0.09951722 83.56669478 3.12979461 83.54532218 6.35986328 83.5246582 C8.55324634 83.49649849 10.74660747 83.46657106 12.93994141 83.43481445 C18.30904328 83.36093545 23.67788376 83.31135961 29.04736328 83.2746582 C30.03736328 80.3046582 31.02736328 77.3346582 32.04736328 74.2746582 C30.61424805 74.29560547 29.18113281 74.31655273 27.70458984 74.33813477 C22.38958724 74.41051302 17.07462824 74.45645049 11.75927734 74.49438477 C9.45842159 74.51450508 7.15761699 74.54180454 4.85693359 74.57641602 C1.55049011 74.62491432 -1.75527757 74.64762299 -5.06201172 74.6652832 C-6.09130798 74.68592834 -7.12060425 74.70657349 -8.18109131 74.72784424 C-15.2451772 74.73006579 -15.2451772 74.73006579 -18.61279297 72.56225586 C-20.19335662 69.86366231 -20.40712323 68.39455756 -20.28076172 65.2824707 C-20.24402344 64.30955078 -20.20728516 63.33663086 -20.16943359 62.33422852 C-19.80940806 57.25332762 -19.31780157 52.20604161 -18.70263672 47.1496582 C-18.50238892 45.48241699 -18.50238892 45.48241699 -18.2980957 43.78149414 C-17.29968848 35.68247865 -16.21751987 27.59592403 -15.01513672 19.5246582 C-14.79712402 17.96400635 -14.79712402 17.96400635 -14.57470703 16.37182617 C-13.68511707 10.67788622 -12.71707408 6.70340803 -8.95263672 2.2746582 C-5.47517697 -0.04364829 -4.1059175 0.01752145 0 0 Z " fill="#FBFCFD" transform="translate(317.95263671875,446.725341796875)"/>
<path d="M0 0 C1.27230469 0.00902344 2.54460937 0.01804687 3.85546875 0.02734375 C5.31919922 0.04474609 5.31919922 0.04474609 6.8125 0.0625 C6.21486887 8.33565554 5.27354977 16.50537148 4.0703125 24.7109375 C3.90127411 25.88475983 3.73223572 27.05858215 3.55807495 28.26797485 C3.02122746 31.9916424 2.47958643 35.71459188 1.9375 39.4375 C1.40534757 43.11211681 0.87422844 46.78688094 0.34368896 50.46173096 C-0.00395239 52.86903076 -0.35237598 55.27621773 -0.70159912 57.68328857 C-1.50880418 63.26505431 -2.30023349 68.84786796 -3.04394531 74.43847656 C-3.17608429 75.43037994 -3.30822327 76.42228333 -3.44436646 77.44424438 C-3.68489986 79.26438266 -3.92209876 81.08496666 -4.15499878 82.90609741 C-6.34386691 99.50161564 -6.34386691 99.50161564 -12.1875 104.0625 C-15.38926857 105.12975619 -17.69852122 105.19571659 -21.06420898 105.20776367 C-22.27233749 105.21414352 -23.480466 105.22052338 -24.72520447 105.22709656 C-26.68460716 105.22876579 -26.68460716 105.22876579 -28.68359375 105.23046875 C-30.03735896 105.23368247 -31.39112382 105.23704663 -32.74488831 105.24055481 C-35.58196823 105.24654116 -38.41901772 105.2483952 -41.25610352 105.24780273 C-44.88887419 105.2477011 -48.52144949 105.26135713 -52.15417385 105.27857494 C-54.95002639 105.28970075 -57.74583177 105.29172177 -60.54170418 105.29119301 C-62.53143383 105.29294484 -64.52114877 105.30378112 -66.510849 105.31474304 C-68.32777 105.3101281 -68.32777 105.3101281 -70.18139648 105.30541992 C-71.24712387 105.30684494 -72.31285126 105.30826996 -73.41087341 105.30973816 C-76.21444857 105.06010043 -77.84964246 104.60038556 -80.1875 103.0625 C-84.22808481 94.98133038 -80.50184721 81.68291562 -79.375 72.875 C-79.28413116 72.14937866 -79.19326233 71.42375732 -79.09963989 70.67614746 C-74.93728047 37.44877614 -74.93728047 37.44877614 -69.39324951 32.44218445 C-66.76731573 30.799677 -65.31098957 30.69814312 -62.23535156 30.72192383 C-60.76427948 30.72226372 -60.76427948 30.72226372 -59.26348877 30.72261047 C-58.21231873 30.73809433 -57.16114868 30.75357819 -56.078125 30.76953125 C-54.99617859 30.77377609 -53.91423218 30.77802094 -52.79949951 30.78239441 C-49.3452461 30.79918155 -45.89157696 30.83683473 -42.4375 30.875 C-40.09506051 30.89004675 -37.75261187 30.90373517 -35.41015625 30.91601562 C-29.66907162 30.94908519 -23.92832755 30.99928534 -18.1875 31.0625 C-18.13053955 29.97420898 -18.0735791 28.88591797 -18.01489258 27.76464844 C-17.93336212 26.31704281 -17.85156064 24.86945244 -17.76953125 23.421875 C-17.73283325 22.70692871 -17.69613525 21.99198242 -17.6583252 21.25537109 C-17.26337878 14.46151454 -16.47555033 7.99406448 -12.1875 2.5 C-8.25064801 -0.32961237 -4.70022672 -0.04312135 0 0 Z " fill="#FBFCFD" transform="translate(980.1875,415.9375)"/>
<path d="M0 0 C2.58396679 -0.08112454 5.16537568 -0.14054748 7.75 -0.1875 C8.47960937 -0.21263672 9.20921875 -0.23777344 9.9609375 -0.26367188 C13.18508764 -0.30763756 15.58872408 -0.20757186 18.4921875 1.2578125 C20.91259843 4.0544531 20.41171169 6.18901485 20.26171875 9.7578125 C17.65659777 42.03020668 17.65659777 42.03020668 14 53 C24.56 52.67 35.12 52.34 46 52 C47.3654648 49.26907041 47.49487667 46.72538352 47.8671875 43.69140625 C48.02928711 42.39468994 48.19138672 41.09797363 48.35839844 39.76196289 C48.44279175 39.07538605 48.52718506 38.3888092 48.61413574 37.681427 C50.16554841 25.07973825 51.89433377 12.52233324 54 0 C56.41696872 -0.05411124 58.83271787 -0.09372278 61.25 -0.125 C61.93191406 -0.14175781 62.61382812 -0.15851563 63.31640625 -0.17578125 C67.0315375 -0.21185049 69.90907884 -0.18812735 73 2 C76.72102978 9.44205955 73.58371088 21.52943111 72.3203125 29.44921875 C72.14748749 30.58672073 71.97466248 31.72422272 71.79660034 32.89619446 C71.24845739 36.4947562 70.68752601 40.09116121 70.125 43.6875 C69.39339511 48.41980819 68.6675997 53.15297993 67.9453125 57.88671875 C67.68389969 59.5918161 67.68389969 59.5918161 67.41720581 61.33135986 C66.30529976 68.68180028 65.34120881 76.03082952 64.62185669 83.43034363 C63.08176475 98.97977964 63.08176475 98.97977964 57 104 C53.49767315 105.22829788 50.0790871 105.12044941 46.39550781 105.11352539 C45.41439781 105.11374443 45.41439781 105.11374443 44.41346741 105.1139679 C42.25998574 105.11327341 40.10659148 105.10550283 37.953125 105.09765625 C36.45668586 105.09579042 34.96024612 105.09436729 33.46380615 105.09336853 C29.53141585 105.08955635 25.59906268 105.07973717 21.66668701 105.06866455 C17.65149437 105.05842249 13.6362957 105.05386492 9.62109375 105.04882812 C1.74737883 105.03811372 -6.12630596 105.02105291 -14 105 C-13.86480962 103.41358999 -13.72286557 101.82775469 -13.578125 100.2421875 C-13.49981445 99.35901855 -13.42150391 98.47584961 -13.34082031 97.56591797 C-12.71669683 92.86710866 -11.27414725 89.39949134 -8.03198242 85.83837891 C-3.63934479 83.17499527 0.21594306 83.4342023 5.26171875 83.4609375 C6.24872269 83.44914459 7.23572662 83.43735168 8.25263977 83.42520142 C11.39775455 83.3899541 14.54220382 83.38076986 17.6875 83.375 C20.84330871 83.35867975 23.99881932 83.33671342 27.15449524 83.30337524 C29.11648355 83.28367937 31.07860909 83.27441742 33.04069519 83.27645874 C33.92533951 83.26949982 34.80998383 83.26254089 35.72143555 83.25537109 C36.50133347 83.25411224 37.28123138 83.25285339 38.08476257 83.2515564 C40.23973867 83.16626226 40.23973867 83.16626226 42 81 C42.71927295 78.68234271 43.3909893 76.34904126 44 74 C43.40753479 74.00666183 42.81506958 74.01332367 42.20465088 74.02018738 C36.04046045 74.08653768 29.87637141 74.13179933 23.71191406 74.16479492 C21.4110909 74.17988495 19.11029651 74.20035927 16.80957031 74.22631836 C13.50318298 74.26269147 10.19717584 74.27972432 6.890625 74.29296875 C5.3466806 74.31619453 5.3466806 74.31619453 3.77154541 74.33988953 C2.81085144 74.34011612 1.85015747 74.34034271 0.86035156 74.34057617 C-0.40539703 74.35056892 -0.40539703 74.35056892 -1.69671631 74.36076355 C-4.55936304 73.91238691 -5.92698137 73.00138345 -8 71 C-8.45654297 68.0168457 -8.45654297 68.0168457 -8.3671875 64.36328125 C-8.34505692 63.37416496 -8.34505692 63.37416496 -8.32247925 62.36506653 C-8.09953374 55.30932302 -7.30768945 48.31457442 -6.40087891 41.31860352 C-6.12306138 39.17252461 -5.85931699 37.02505625 -5.59765625 34.87695312 C-4.77429059 28.23675969 -3.83725936 21.65625751 -2.44189453 15.10766602 C-1.80031745 12.04759144 -1.33547972 8.9667924 -0.875 5.875 C-0.62363281 4.20050781 -0.62363281 4.20050781 -0.3671875 2.4921875 C-0.24601562 1.66976563 -0.12484375 0.84734375 0 0 Z " fill="#FAFCFD" transform="translate(391,447)"/>
<path d="M0 0 C1.93209068 -0.01879967 1.93209068 -0.01879967 3.9032135 -0.03797913 C5.30063899 -0.02571173 6.69805477 -0.01229185 8.09545898 0.00219727 C9.53604817 0.00136811 10.97663725 -0.00109306 12.41722107 -0.00511169 C15.43094484 -0.00796549 18.44392366 0.00669069 21.45751953 0.03417969 C25.31701637 0.06829397 29.17518438 0.06223098 33.03474522 0.04351711 C36.00741115 0.0329411 38.97976866 0.04188957 41.95240593 0.05690193 C43.37533591 0.06207783 44.79829817 0.0616091 46.22122383 0.05535698 C48.21002504 0.04989744 50.19884233 0.07314629 52.1875 0.09765625 C53.31825455 0.10385483 54.44900909 0.11005341 55.61402893 0.11643982 C59.16593709 0.743549 60.35032234 1.8094784 62.52905273 4.63110352 C64.69248665 14.98796803 61.35172511 27.48597421 59.75805664 37.77075195 C59.27829818 40.8860031 58.82280772 44.00418141 58.36889648 47.12329102 C58.06436264 49.13132483 57.75842144 51.13914582 57.45092773 53.14672852 C57.31845642 54.06568909 57.18598511 54.98464966 57.04949951 55.93145752 C56.13303034 61.68753863 55.00089232 67.82017954 51.52905273 72.63110352 C47.82812616 74.64996592 44.61053053 74.88759588 40.44116211 74.90576172 C39.23641235 74.91529373 38.0316626 74.92482574 36.79040527 74.93464661 C35.49759644 74.9337352 34.2047876 74.93282379 32.87280273 74.93188477 C31.52429066 74.93577517 30.1757798 74.94011055 28.82727051 74.94487 C26.00630717 74.95231591 23.18546903 74.95205239 20.36450195 74.94677734 C16.75643082 74.94097839 13.14887231 74.95793123 9.54088593 74.98112202 C6.75784326 74.99587881 3.97492361 74.99672856 1.19184875 74.99361229 C-0.78289043 74.99437252 -2.75761058 75.00822575 -4.7322998 75.02229309 C-5.93704956 75.0160643 -7.14179932 75.00983551 -8.38305664 75.00341797 C-9.96926819 75.00436211 -9.96926819 75.00436211 -11.58752441 75.00532532 C-14.90406619 74.57489166 -16.78982127 73.59921874 -19.47094727 71.63110352 C-22.8612544 64.85048925 -19.84081698 54.6568511 -18.59594727 47.56860352 C-17.34425913 40.16264572 -16.18651223 32.78958854 -15.40844727 25.31860352 C-12.62200934 0.01072808 -12.62200934 0.01072808 0 0 Z " fill="#FAFBFC" transform="translate(747.470947265625,446.368896484375)"/>
<path d="M0 0 C1.26488754 -0.01268417 2.52977509 -0.02536835 3.83299255 -0.03843689 C5.21035933 -0.0363853 6.58772498 -0.03339716 7.96508789 -0.02954102 C9.38229116 -0.0341038 10.79949222 -0.03940966 12.21669006 -0.04542542 C15.18491614 -0.05435357 18.15287312 -0.05193723 21.12109375 -0.04199219 C24.91879483 -0.03050587 28.71556562 -0.05070891 32.51314449 -0.07990932 C35.43947722 -0.09828543 38.36558761 -0.09797611 41.29196358 -0.0922718 C42.69176094 -0.09211874 44.09157351 -0.09815075 45.49131584 -0.11056328 C47.45118966 -0.12549403 49.41121669 -0.11215541 51.37109375 -0.09765625 C52.484879 -0.09749008 53.59866425 -0.09732391 54.74620056 -0.09715271 C58.43059211 0.51756444 60.11061506 1.80974128 62.75024414 4.40405273 C64.83302982 11.87193559 61.95180327 21.19285148 60.67211914 28.73217773 C59.95649786 33.00421993 59.34353601 37.28306999 58.76586914 41.57592773 C58.51305176 43.43906616 58.51305176 43.43906616 58.25512695 45.33984375 C57.92470653 47.79514873 57.6008755 50.2513517 57.28442383 52.70849609 C55.1955054 68.0196627 55.1955054 68.0196627 50.51416016 72.58447266 C45.28909826 75.83722277 38.70044522 74.97192446 32.77758789 74.93530273 C31.40808334 74.93800051 30.03858067 74.94188531 28.66908264 74.94689941 C25.80687114 74.95277922 22.94516081 74.94428023 20.08300781 74.92553711 C16.42207259 74.90272564 12.76230907 74.91589239 9.10141659 74.93982697 C6.27628308 74.9543083 3.45142565 74.94966889 0.62628365 74.9393158 C-1.37724956 74.93536711 -3.38079369 74.94747012 -5.3842926 74.95983887 C-6.60583542 74.94723022 -7.82737823 74.93462158 -9.0859375 74.92163086 C-10.15816055 74.91844849 -11.23038361 74.91526611 -12.33509827 74.9119873 C-15.95598997 74.280978 -17.64891924 72.95398965 -20.24975586 70.40405273 C-20.78198242 68.19067383 -20.78198242 68.19067383 -20.64038086 65.80249023 C-20.59461914 64.92044922 -20.54885742 64.0384082 -20.50170898 63.12963867 C-20.09635208 58.74455685 -19.61569194 54.38998905 -18.99975586 50.02905273 C-18.8005957 48.57801147 -18.8005957 48.57801147 -18.59741211 47.09765625 C-18.30792727 44.99806124 -18.01550096 42.89887014 -17.72045898 40.80004883 C-17.21682087 37.1664357 -16.74025953 33.52981151 -16.26538086 29.89233398 C-15.92753869 27.37531291 -15.58900807 24.85838414 -15.24975586 22.34155273 C-15.0191748 20.54935303 -15.0191748 20.54935303 -14.78393555 18.72094727 C-13.0328764 6.04480173 -13.0328764 6.04480173 -8.5388031 1.78062439 C-5.5460555 -0.0191338 -3.48319141 0.01690908 0 0 Z " fill="#FAFCFD" transform="translate(833.249755859375,446.595947265625)"/>
<path d="M0 0 C0.67387253 -0.00058411 1.34774506 -0.00116821 2.04203796 -0.00177002 C4.25008239 0.00099737 6.45674481 0.03202167 8.66455078 0.06347656 C10.20296491 0.07094383 11.7413886 0.07663447 13.27981567 0.08062744 C17.31435754 0.09584575 21.34831661 0.13509379 25.38262939 0.17944336 C29.50516884 0.22047881 33.62780314 0.23865604 37.75048828 0.25878906 C45.8288797 0.30159259 53.90679884 0.36979675 61.98486328 0.45410156 C61.86482721 2.19301785 61.73375384 3.93117414 61.59814453 5.66894531 C61.52635986 6.63695068 61.4545752 7.60495605 61.38061523 8.60229492 C60.82193718 12.62815447 59.51773929 16.24579196 56.98486328 19.45410156 C53.98654559 21.27022101 51.69844693 21.7167857 48.21630859 21.77294922 C46.80529877 21.80275375 46.80529877 21.80275375 45.36578369 21.8331604 C43.85464996 21.85048721 43.85464996 21.85048721 42.31298828 21.86816406 C41.27543396 21.88753021 40.23787964 21.90689636 39.16888428 21.92684937 C35.85762736 21.98658998 32.54633557 22.03300886 29.23486328 22.07910156 C26.98875444 22.11728638 24.74266016 22.15633841 22.49658203 22.19628906 C16.99280514 22.29228698 11.4889404 22.37735072 5.98486328 22.45410156 C5.65486328 23.77410156 5.32486328 25.09410156 4.98486328 26.45410156 C6.28109619 26.43839111 7.5773291 26.42268066 8.9128418 26.40649414 C13.74155414 26.35201932 18.57023953 26.31768763 23.39916992 26.28930664 C25.48547948 26.27425997 27.57175761 26.25381774 29.65795898 26.2277832 C32.66414159 26.19121862 35.6699044 26.17433367 38.67626953 26.16113281 C39.60258682 26.14564896 40.52890411 26.1301651 41.48329163 26.11421204 C47.08462697 26.11277037 51.04658025 26.73521587 55.98486328 29.45410156 C59.14431425 35.77300351 56.62571433 45.42624007 55.60986328 52.14160156 C55.48353516 53.03943359 55.35720703 53.93726563 55.22705078 54.86230469 C53.26760929 68.23549285 53.26760929 68.23549285 49.48486328 71.82910156 C45.68396751 74.29968382 43.68015442 74.58984503 39.14575195 74.63110352 C37.3082563 74.65035637 37.3082563 74.65035637 35.43363953 74.66999817 C34.09004114 74.67816589 32.74643818 74.68560956 31.40283203 74.69238281 C30.72688807 74.69645834 30.0509441 74.70053387 29.35451698 74.70473289 C25.77614268 74.72559285 22.19780672 74.73989429 18.61938477 74.74926758 C14.92707903 74.76032633 11.23537692 74.79471917 7.54328442 74.83443928 C4.70106401 74.86061295 1.85898719 74.86896006 -0.98334312 74.87254906 C-2.34409342 74.87741392 -3.70483735 74.88902528 -5.06546974 74.90758705 C-6.97277894 74.93198718 -8.88038189 74.92859281 -10.7878418 74.92407227 C-11.87212967 74.92993851 -12.95641754 74.93580475 -14.07356262 74.94184875 C-17.74428564 74.33320019 -19.41689385 73.07716588 -22.01513672 70.45410156 C-22.53857422 67.36035156 -22.53857422 67.36035156 -22.39013672 63.95410156 C-22.35662109 62.83003906 -22.32310547 61.70597656 -22.28857422 60.54785156 C-22.01513672 57.45410156 -22.01513672 57.45410156 -21.01513672 53.45410156 C5.71486328 52.95910156 5.71486328 52.95910156 32.98486328 52.45410156 C33.31486328 51.13410156 33.64486328 49.81410156 33.98486328 48.45410156 C33.14041153 48.46409431 33.14041153 48.46409431 32.27890015 48.47428894 C26.40636927 48.5407876 20.53394582 48.58596236 14.66113281 48.61889648 C12.47098443 48.63395963 10.2808661 48.65441415 8.09082031 48.68041992 C4.93823825 48.71691145 1.78605591 48.73385296 -1.36669922 48.74707031 C-2.34192535 48.76255417 -3.31715149 48.77803802 -4.32192993 48.79399109 C-9.63154525 48.79529812 -13.45478707 48.51090142 -18.01513672 45.45410156 C-21.14054449 39.20328602 -18.27560087 29.92656012 -17.14013672 23.39160156 C-16.96611328 22.34166016 -16.79208984 21.29171875 -16.61279297 20.20996094 C-16.11552991 17.28347576 -15.57635084 14.36891405 -15.01513672 11.45410156 C-14.89364258 10.74012207 -14.77214844 10.02614258 -14.64697266 9.29052734 C-13.91971219 5.87021591 -13.10877203 4.53071316 -10.37594604 2.29473877 C-6.54388325 0.19600698 -4.33843296 -0.03178339 0 0 Z " fill="#F9FBFC" transform="translate(577.01513671875,446.5458984375)"/>
<path d="M0 0 C1.93231728 -0.01429802 1.93231728 -0.01429802 3.90367126 -0.02888489 C5.31151354 -0.02862346 6.71935583 -0.0276864 8.12719727 -0.02612305 C9.57064436 -0.03001018 11.01409032 -0.03434488 12.45753479 -0.03910828 C15.48295805 -0.04657008 18.50826461 -0.0462796 21.53369141 -0.04101562 C25.40870387 -0.03522171 29.28323824 -0.05214979 33.15817165 -0.0753603 C36.13933602 -0.09010021 39.12038532 -0.090969 42.10157967 -0.08785057 C43.53011077 -0.08836368 44.95864833 -0.09359958 46.38714409 -0.10366249 C48.38566307 -0.11601273 50.38427861 -0.10729602 52.3828125 -0.09765625 C53.51959946 -0.09828568 54.65638641 -0.0989151 55.82762146 -0.0995636 C59.06862272 0.31459408 60.45475508 0.99046762 62.75610352 3.2746582 C64.56077618 11.9796597 62.02085743 22.36630273 60.78466797 31.10913086 C60.44629637 33.50558655 60.12070188 35.90350941 59.79711914 38.30200195 C59.26444776 42.20401647 58.69692133 46.09956818 58.10272217 49.99267578 C57.87098554 51.51832627 57.64514474 53.04488357 57.42510986 54.57226562 C57.10496278 56.76347356 56.75689028 58.94844107 56.40063477 61.1340332 C56.20445557 62.39183594 56.00827637 63.64963867 55.80615234 64.94555664 C54.55371769 68.91630737 52.95282481 70.65737473 49.75610352 73.2746582 C46.19565175 74.46147546 43.31802014 74.37155652 39.56860352 74.3371582 C38.29629883 74.32813477 37.02399414 74.31911133 35.71313477 74.30981445 C34.73731445 74.29821289 33.76149414 74.28661133 32.75610352 74.2746582 C34.67534577 56.53935622 37.0290524 38.90361663 39.75610352 21.2746582 C38.10610352 21.6046582 36.45610352 21.9346582 34.75610352 22.2746582 C34.62034912 23.34312988 34.48459473 24.41160156 34.34472656 25.51245117 C33.83319262 29.52057331 33.31051876 33.52718047 32.78466797 37.53344727 C32.55967611 39.25929751 32.33760624 40.98553155 32.11865234 42.7121582 C29.03387324 66.99688848 29.03387324 66.99688848 24.19360352 71.8371582 C20.00964933 74.30461837 17.54257435 74.38180794 12.63110352 74.3371582 C11.34977539 74.32813477 10.06844727 74.31911133 8.74829102 74.30981445 C7.76086914 74.29821289 6.77344727 74.28661133 5.75610352 74.2746582 C6.83420639 62.21692869 8.22624855 50.21176746 9.81860352 38.2121582 C9.90646118 37.54287292 9.99431885 36.87358765 10.08483887 36.184021 C10.33764406 34.26455019 10.59560405 32.34576047 10.85375977 30.42700195 C11.00337158 29.31317139 11.1529834 28.19934082 11.30712891 27.05175781 C11.75610352 24.2746582 11.75610352 24.2746582 12.75610352 21.2746582 C11.10610352 21.2746582 9.45610352 21.2746582 7.75610352 21.2746582 C7.65813477 22.27239258 7.56016602 23.27012695 7.45922852 24.2980957 C6.47900953 33.88081662 5.25443759 43.42810219 3.88110352 52.9621582 C3.65729004 54.62674072 3.65729004 54.62674072 3.42895508 56.32495117 C2.51437191 62.47547623 1.5685515 67.28021469 -2.24389648 72.2746582 C-6.17677938 74.72684754 -10.00715953 74.48469067 -14.55639648 74.3996582 C-15.8106543 74.38161133 -17.06491211 74.36356445 -18.35717773 74.3449707 C-19.30979492 74.32176758 -20.26241211 74.29856445 -21.24389648 74.2746582 C-20.66080691 63.35498064 -19.03018669 52.68545371 -17.30639648 41.8996582 C-16.90546894 39.36830221 -16.50604819 36.83671961 -16.10824585 34.30487061 C-15.84878826 32.65473244 -15.58760055 31.0048653 -15.32461548 29.35528564 C-14.72232378 25.5367997 -14.16042063 21.72291412 -13.7121582 17.88305664 C-13.63098251 17.20109222 -13.54980682 16.51912781 -13.46617126 15.8164978 C-13.25575728 13.9969413 -13.06060707 12.17563753 -12.86669922 10.35424805 C-11.30921999 2.65293759 -7.63592034 0.03097002 0 0 Z " fill="#FAFBFC" transform="translate(489.243896484375,446.725341796875)"/>
<path d="M0 0 C2.39652528 -0.08139142 4.79025436 -0.14067009 7.1875 -0.1875 C7.86103516 -0.21263672 8.53457031 -0.23777344 9.22851562 -0.26367188 C13.71415591 -0.32931539 16.40396893 0.31144193 20 3 C21.52979012 4.52979012 21.20659065 5.85847199 21.25 8 C21.19629842 13.08630696 20.40817692 17.8917485 19.484375 22.875 C19.34241699 23.65875 19.20045898 24.4425 19.05419922 25.25 C18.70639235 27.1673219 18.35369436 29.08375545 18 31 C18.59246521 30.99333817 19.18493042 30.98667633 19.79534912 30.97981262 C25.95953955 30.91346232 32.12362859 30.86820067 38.28808594 30.83520508 C40.5889091 30.82011505 42.88970349 30.79964073 45.19042969 30.77368164 C48.49681702 30.73730853 51.80282416 30.72027568 55.109375 30.70703125 C56.13867126 30.69154739 57.16796753 30.67606354 58.22845459 30.66011047 C59.18914856 30.65988388 60.14984253 30.65965729 61.13964844 30.65942383 C61.98348083 30.65276199 62.82731323 30.64610016 63.69671631 30.63923645 C66.54181765 31.08486495 67.91660398 32.04160553 70 34 C72.66721117 47.22303842 68.00218282 64.38858282 66 77.5625 C65.8340332 78.65643066 65.66806641 79.75036133 65.49707031 80.87744141 C62.58996634 99.52802693 62.58996634 99.52802693 57 104 C53.93466836 105.53266582 50.73245728 105.10276471 47.375 105.0625 C46.66859375 105.05798828 45.9621875 105.05347656 45.234375 105.04882812 C43.48954725 105.03703875 41.744763 105.01910324 40 105 C40.11794705 103.39529935 40.24490466 101.79126148 40.375 100.1875 C40.47941406 98.84751953 40.47941406 98.84751953 40.5859375 97.48046875 C40.93092083 94.58065605 41.39799781 91.78013309 41.94140625 88.9140625 C43.10049313 82.70082994 43.84987548 76.46538268 44.5625 70.1875 C44.81252842 68.01417601 45.06379047 65.84099352 45.31640625 63.66796875 C45.42412354 62.72203857 45.53184082 61.7761084 45.64282227 60.80151367 C46.0182524 57.85683779 46.51197962 54.92812225 47 52 C36.44 52 25.88 52 15 52 C14.7525 54.43375 14.505 56.8675 14.25 59.375 C13.36008175 67.4995667 12.29023636 75.59811448 11.125 83.6875 C10.97579102 84.79722168 10.82658203 85.90694336 10.67285156 87.05029297 C9.75826839 93.20081802 8.81244799 98.00555649 5 103 C1.0671171 105.45218934 -2.76326305 105.21003247 -7.3125 105.125 C-8.56675781 105.10695313 -9.82101562 105.08890625 -11.11328125 105.0703125 C-12.06589844 105.04710937 -13.01851562 105.02390625 -14 105 C-13.39409448 97.64208377 -12.56126555 90.35006325 -11.51171875 83.04296875 C-11.36847168 82.02912613 -11.22522461 81.01528351 -11.07763672 79.97071838 C-10.77322131 77.81759817 -10.46764581 75.6646417 -10.16098022 73.51184082 C-9.36215297 67.90321366 -8.57192234 62.2933754 -7.78125 56.68359375 C-7.54809334 55.031353 -7.54809334 55.031353 -7.31022644 53.34573364 C-5.90331864 43.35710481 -4.55461015 33.36165536 -3.24291992 23.36010742 C-2.21919816 15.56489898 -1.1256068 7.78114759 0 0 Z " fill="#FAFBFC" transform="translate(654,416)"/>
<path d="M0 0 C1.08587906 0.00999275 1.08587906 0.00999275 2.19369507 0.02018738 C3.01439484 0.02041397 3.8350946 0.02064056 4.68066406 0.02087402 C6.01041763 0.04409981 6.01041763 0.04409981 7.36703491 0.0677948 C8.27424286 0.07203964 9.18145081 0.07628448 10.1161499 0.08065796 C13.02038973 0.09748222 15.92394151 0.13514095 18.82797241 0.17326355 C20.79410824 0.18830556 22.76025492 0.2019948 24.72640991 0.21427917 C29.5521968 0.24739798 34.37746786 0.29920569 39.20297241 0.36076355 C38.75245206 4.81992195 38.29112695 9.27790113 37.82797241 13.73576355 C37.63848022 15.61328308 37.63848022 15.61328308 37.44515991 17.5287323 C35.46146426 36.47302578 35.46146426 36.47302578 32.20297241 41.36076355 C29.15222157 41.62725055 26.30671062 41.70833501 23.25765991 41.6537323 C22.37264801 41.64948746 21.48763611 41.64524261 20.57580566 41.64086914 C17.74288797 41.62404614 14.91067589 41.5863878 12.07797241 41.54826355 C10.16001392 41.53322137 8.2420443 41.51953216 6.32406616 41.50724792 C1.6167621 41.47413082 -3.09001302 41.4223241 -7.79702759 41.36076355 C-6.87889252 21.96799198 -6.87889252 21.96799198 -5.35952759 12.42326355 C-5.23771118 11.57570496 -5.11589478 10.72814636 -4.99038696 9.85490417 C-3.5901543 0.72074398 -3.5901543 0.72074398 0 0 Z " fill="#091B51" transform="translate(568.7970275878906,238.6392364501953)"/>
<path d="M0 0 C2.48340903 -0.26727014 4.71472068 -0.34866334 7.1953125 -0.29296875 C8.25647781 -0.28660149 8.25647781 -0.28660149 9.33908081 -0.28010559 C11.60143905 -0.26329547 13.86291048 -0.22564128 16.125 -0.1875 C17.65753923 -0.17245607 19.1900924 -0.15876716 20.72265625 -0.14648438 C24.48211318 -0.11338462 28.24090618 -0.06158825 32 0 C31.55218443 4.04290408 31.08989074 8.08402665 30.625 12.125 C30.43550781 13.83816406 30.43550781 13.83816406 30.2421875 15.5859375 C30.11328125 16.69453125 29.984375 17.803125 29.8515625 18.9453125 C29.73635254 19.96125488 29.62114258 20.97719727 29.50244141 22.02392578 C28.18752467 29.81247533 28.18752467 29.81247533 26 32 C23.70848583 32.08790975 21.41427476 32.10694038 19.12109375 32.09765625 C18.09110008 32.09553383 18.09110008 32.09553383 17.04029846 32.09336853 C14.83932199 32.08775479 12.63844591 32.07520007 10.4375 32.0625 C8.94856917 32.05748676 7.45963676 32.05292355 5.97070312 32.04882812 C2.31376925 32.03778093 -1.34310558 32.02050713 -5 32 C-3.99662483 17.01529726 -3.99662483 17.01529726 -3.0625 9.8125 C-2.90910156 8.58144531 -2.75570312 7.35039062 -2.59765625 6.08203125 C-2 3 -2 3 0 0 Z " fill="#0C1D54" transform="translate(841,468)"/>
<path d="M0 0 C1.28825684 0.01047363 2.57651367 0.02094727 3.90380859 0.03173828 C4.93167984 0.03598312 4.93167984 0.03598312 5.98031616 0.04031372 C8.17113636 0.05151797 10.36154925 0.07662219 12.55224609 0.10205078 C14.03661519 0.1120803 15.5209907 0.1212062 17.00537109 0.12939453 C20.6461287 0.15145784 24.28664766 0.18598903 27.92724609 0.22705078 C26.72005793 28.43423894 26.72005793 28.43423894 22.92724609 32.22705078 C20.5515609 32.31544749 18.20515935 32.34235383 15.82958984 32.32470703 C14.76630211 32.32258461 14.76630211 32.32258461 13.68153381 32.32041931 C11.40922897 32.31480521 9.13702134 32.30225041 6.86474609 32.28955078 C5.32763814 32.28453759 3.79052864 32.27997437 2.25341797 32.27587891 C-1.52201032 32.26483121 -5.29736561 32.24755719 -9.07275391 32.22705078 C-8.43793832 25.36477716 -7.6305698 18.54624071 -6.63525391 11.72705078 C-6.5134375 10.83501953 -6.39162109 9.94298828 -6.26611328 9.02392578 C-6.14171875 8.17314453 -6.01732422 7.32236328 -5.88916016 6.44580078 C-5.78031494 5.68203125 -5.67146973 4.91826172 -5.55932617 4.13134766 C-4.67875871 0.68507257 -3.44403966 0.25448569 0 0 Z " fill="#0B1D53" transform="translate(930.07275390625,467.77294921875)"/>
<path d="M0 0 C1.34888732 0.00015905 2.69778075 0.00584927 4.04663086 0.01586914 C5.10991859 0.01799156 5.10991859 0.01799156 6.19468689 0.02015686 C8.46699173 0.02577096 10.73919936 0.03832576 13.01147461 0.05102539 C14.54858257 0.05603858 16.08569206 0.0606018 17.62280273 0.06469727 C21.39823103 0.07574497 25.17358632 0.09301898 28.94897461 0.11352539 C28.35668232 7.3656219 27.54150057 14.54516142 26.44897461 21.73852539 C26.3187793 22.63442383 26.18858398 23.53032227 26.05444336 24.45336914 C25.86301758 25.72760742 25.86301758 25.72760742 25.66772461 27.02758789 C25.55364258 27.79022949 25.43956055 28.55287109 25.32202148 29.33862305 C24.94897461 31.11352539 24.94897461 31.11352539 23.94897461 32.11352539 C21.57328941 32.2019221 19.22688787 32.22882844 16.85131836 32.21118164 C15.78803062 32.20905922 15.78803062 32.20905922 14.70326233 32.20689392 C12.43095749 32.20127982 10.15874986 32.18872502 7.88647461 32.17602539 C6.34936665 32.1710122 4.81225716 32.16644898 3.27514648 32.16235352 C-0.50028181 32.15130581 -4.2756371 32.1340318 -8.05102539 32.11352539 C-5.13319875 0.19100083 -5.13319875 0.19100083 0 0 Z " fill="#0B1C52" transform="translate(758.051025390625,467.886474609375)"/>
<path d="M0 0 C1.28825684 0.01047363 2.57651367 0.02094727 3.90380859 0.03173828 C4.93167984 0.03598312 4.93167984 0.03598312 5.98031616 0.04031372 C8.17113636 0.05151797 10.36154925 0.07662219 12.55224609 0.10205078 C14.03661519 0.1120803 15.5209907 0.1212062 17.00537109 0.12939453 C20.6461287 0.15145784 24.28664766 0.18598903 27.92724609 0.22705078 C28.08655539 6.45459614 27.50130914 12.32639222 26.55224609 18.47705078 C26.36275391 19.80349609 26.36275391 19.80349609 26.16943359 21.15673828 C26.04052734 22.01009766 25.91162109 22.86345703 25.77880859 23.74267578 C25.66359863 24.50870117 25.54838867 25.27472656 25.4296875 26.06396484 C24.92724609 28.22705078 24.92724609 28.22705078 22.92724609 32.22705078 C12.69724609 32.22705078 2.46724609 32.22705078 -8.07275391 32.22705078 C-8.07275391 24.95816056 -7.79368492 18.76630001 -6.69775391 11.72705078 C-6.57142578 10.83501953 -6.44509766 9.94298828 -6.31494141 9.02392578 C-6.18603516 8.17314453 -6.05712891 7.32236328 -5.92431641 6.44580078 C-5.80910645 5.68203125 -5.69389648 4.91826172 -5.57519531 4.13134766 C-4.66778307 0.69217587 -3.45058341 0.25496922 0 0 Z " fill="#0A1B52" transform="translate(329.07275390625,467.77294921875)"/>
<path d="M0 0 C1.65 0 3.3 0 5 0 C3.26628242 17.78258944 1.04069418 35.39231332 -2 53 C-4 49.25 -4 49.25 -4 47 C-4.99 47 -5.98 47 -7 47 C-7 47.66 -7 48.32 -7 49 C-7.66 48.67 -8.32 48.34 -9 48 C-8.5359375 47.18063965 -8.5359375 47.18063965 -8.0625 46.34472656 C-6.86022582 43.69154612 -6.43020274 41.36423666 -6 38.484375 C-5.83604736 37.40478516 -5.67209473 36.32519531 -5.50317383 35.21289062 C-5.33712646 34.07013672 -5.1710791 32.92738281 -5 31.75 C-4.82557373 30.58662109 -4.65114746 29.42324219 -4.47143555 28.22460938 C-3.31468984 20.42428206 -2.27526968 12.61735268 -1.39453125 4.78125 C-1 2 -1 2 0 0 Z " fill="#12214E" transform="translate(497,468)"/>
<path d="M0 0 C1.2065625 0.0309375 1.2065625 0.0309375 2.4375 0.0625 C1.87777094 9.78253611 0.81691943 19.30772007 -0.625 28.9375 C-0.81126953 30.20980469 -0.99753906 31.48210937 -1.18945312 32.79296875 C-1.6425783 35.88351479 -2.10030828 38.97329922 -2.5625 42.0625 C-3.8825 41.7325 -5.2025 41.4025 -6.5625 41.0625 C-6.85125 41.866875 -7.14 42.67125 -7.4375 43.5 C-8.5625 46.0625 -8.5625 46.0625 -10.5625 47.0625 C-10.39234375 46.17175781 -10.2221875 45.28101563 -10.046875 44.36328125 C-7.96660579 33.15958733 -6.39475373 21.89978649 -4.92089844 10.6027832 C-4.75879883 9.38292725 -4.59669922 8.16307129 -4.4296875 6.90625 C-4.21481689 5.25399414 -4.21481689 5.25399414 -3.99560547 3.56835938 C-3.3931646 0.08276011 -3.3931646 0.08276011 0 0 Z " fill="#142351" transform="translate(526.5625,467.9375)"/>
<path d="M0 0 C0.33 0 0.66 0 1 0 C2.125 6.625 2.125 6.625 1 10 C1.66 10.33 2.32 10.66 3 11 C3.66 8.03 4.32 5.06 5 2 C6.00131865 6.0052746 5.89215375 7.88296559 5.22265625 11.859375 C4.94711914 13.53193359 4.94711914 13.53193359 4.66601562 15.23828125 C4.46685547 16.39714844 4.26769531 17.55601562 4.0625 18.75 C3.86720703 19.92433594 3.67191406 21.09867187 3.47070312 22.30859375 C2.98763371 25.20701025 2.49714131 28.10396967 2 31 C0 27.25 0 27.25 0 25 C-0.99 25 -1.98 25 -3 25 C-3 25.66 -3 26.32 -3 27 C-3.66 26.67 -4.32 26.34 -5 26 C-4.68756348 25.44731445 -4.37512695 24.89462891 -4.05322266 24.32519531 C-2.88950597 21.75606279 -2.50578931 19.59071646 -2.1484375 16.796875 C-2.01953125 15.8171875 -1.890625 14.8375 -1.7578125 13.828125 C-1.63148438 12.81234375 -1.50515625 11.7965625 -1.375 10.75 C-1.2409375 9.71875 -1.106875 8.6875 -0.96875 7.625 C-0.63937294 5.08409122 -0.3167036 2.54251426 0 0 Z " fill="#1F2D5A" transform="translate(493,490)"/>
<path d="M0 0 C15.51 0 31.02 0 47 0 C47 0.33 47 0.66 47 1 C32.48 1.33 17.96 1.66 3 2 C2.67 2.66 2.34 3.32 2 4 C4.31 4 6.62 4 9 4 C9 4.33 9 4.66 9 5 C5.7 5 2.4 5 -1 5 C-0.67 3.35 -0.34 1.7 0 0 Z " fill="#0E1941" transform="translate(583,468)"/>
<path d="M0 0 C10.56 0 21.12 0 32 0 C32 1.98 32 3.96 32 6 C31.67 6 31.34 6 31 6 C31 4.35 31 2.7 31 1 C21.76 1.33 12.52 1.66 3 2 C2.01 5.3 1.02 8.6 0 12 C-0.33 12 -0.66 12 -1 12 C-1.07329796 7.60212211 -1.07396066 4.29584263 0 0 Z " fill="#0D1C44" transform="translate(669,468)"/>
<path d="M0 0 C10.23 0 20.46 0 31 0 C30.67 1.32 30.34 2.64 30 4 C30 3.01 30 2.02 30 1 C26.06690266 1.09363611 22.13435915 1.19975145 18.2019043 1.31738281 C16.2070464 1.37444092 14.2119146 1.42164442 12.21679688 1.46875 C10.33637695 1.52675781 10.33637695 1.52675781 8.41796875 1.5859375 C6.68196411 1.63306885 6.68196411 1.63306885 4.91088867 1.68115234 C1.80872972 1.79471033 1.80872972 1.79471033 -1 4 C-0.67 2.68 -0.34 1.36 0 0 Z " fill="#0E1940" transform="translate(927,468)"/>
<path d="M0 0 C0.99 0.33 1.98 0.66 3 1 C3 1.99 3 2.98 3 4 C11.58 4 20.16 4 29 4 C29 4.33 29 4.66 29 5 C19.43 5 9.86 5 0 5 C0 3.35 0 1.7 0 0 Z " fill="#0D1B42" transform="translate(321,495)"/>
<path d="M0 0 C2.13555518 2.59980631 3.7001511 4.60171245 4 8 C3.0625 11.25 3.0625 11.25 2 14 C1.01 13.67 0.02 13.34 -1 13 C-0.835 12.34 -0.67 11.68 -0.5 11 C0.12183299 7.26900206 0.06408926 3.78126622 0 0 Z " fill="#0A194C" transform="translate(494,487)"/>
<path d="M0 0 C0.33 0 0.66 0 1 0 C2.51708428 9.41002278 2.51708428 9.41002278 0 14 C-0.66 14 -1.32 14 -2 14 C-1.85970581 11.8537974 -1.71261836 9.70803782 -1.5625 7.5625 C-1.48128906 6.36753906 -1.40007813 5.17257813 -1.31640625 3.94140625 C-1 1 -1 1 0 0 Z " fill="#2B3B60" transform="translate(748,230)"/>
<path d="M0 0 C0.33 0 0.66 0 1 0 C2.10643764 5.83394389 2.27137992 8.76579213 -1 14 C-2.13732426 10.59598052 -1.83989957 8.22543336 -1.0625 4.75 C-0.86785156 3.85796875 -0.67320312 2.9659375 -0.47265625 2.046875 C-0.31667969 1.37140625 -0.16070313 0.6959375 0 0 Z " fill="#243359" transform="translate(982,453)"/>
<path d="M0 0 C0.33 1.32 0.66 2.64 1 4 C0.34 4 -0.32 4 -1 4 C-1.33 4.99 -1.66 5.98 -2 7 C-2.33 6.67 -2.66 6.34 -3 6 C-3.66 6.66 -4.32 7.32 -5 8 C-5 6.35 -5 4.7 -5 3 C-3.35 2.67 -1.7 2.34 0 2 C0 1.34 0 0.68 0 0 Z " fill="#091A48" transform="translate(526,483)"/>
<path d="M0 0 C1.485 0.99 1.485 0.99 3 2 C2.67 2.66 2.34 3.32 2 4 C4.31 4 6.62 4 9 4 C9 4.33 9 4.66 9 5 C5.7 5 2.4 5 -1 5 C-0.67 3.35 -0.34 1.7 0 0 Z " fill="#132048" transform="translate(583,468)"/>
<path d="M0 0 C0.66 0 1.32 0 2 0 C1.69381595 3.67420866 1.24228216 4.78135513 -1.5625 7.3125 C-2.366875 7.869375 -3.17125 8.42625 -4 9 C-4.33 8.34 -4.66 7.68 -5 7 C-4.0409375 6.1028125 -4.0409375 6.1028125 -3.0625 5.1875 C-0.79689611 3.09189663 -0.79689611 3.09189663 0 0 Z " fill="#262F59" transform="translate(716,512)"/>
<path d="M0 0 C0.33 0 0.66 0 1 0 C0.67 3.63 0.34 7.26 0 11 C-1.86870807 7.26258387 -2.41702384 5.96172649 -2 2 C-1.34 1.34 -0.68 0.68 0 0 Z " fill="#0A1B44" transform="translate(384,487)"/>
<path d="M0 0 C1.07310858 3.27185553 0.89263102 5.42947592 0.0625 8.75 C-0.13214844 9.54921875 -0.32679688 10.3484375 -0.52734375 11.171875 C-0.68332031 11.77515625 -0.83929687 12.3784375 -1 13 C-1.33 13 -1.66 13 -2 13 C-2.05416188 11.39620659 -2.09286638 9.79188594 -2.125 8.1875 C-2.14820313 7.29417969 -2.17140625 6.40085938 -2.1953125 5.48046875 C-2 3 -2 3 0 0 Z " fill="#243258" transform="translate(541,219)"/>
</svg>
